<svg width="184" height="38" viewBox="0 0 184 38" fill="none" xmlns="http://www.w3.org/2000/svg">
<path d="M167.893 12.1701C174.851 29.6803 147.499 22.9293 139.015 14L141.155 10.6456C143.052 11.1901 147.877 10.6021 150.712 7.37879C159.99 -1.85545 166.067 7.81436 166.067 7.81436C166.067 7.81436 155.759 5.96316 147.598 13.4769C169.826 2.80523 178.416 14.4569 184 21.6439C182.926 22.7329 180.564 22.624 179.812 21.6439C178.631 16.417 171.114 12.1701 167.893 12.1701Z" fill="#479F76"/>
<path d="M5.96273 21.4542C3.64546 21.4542 1.35645 21.0216 0 20.4161L0.565187 16.379C2.28901 17.4748 4.5215 18.1092 6.1888 18.1092C8.05392 18.1092 9.12778 17.2441 9.12778 15.9464C9.12778 14.8218 8.36477 14.3893 5.51058 13.1205C2.09119 11.6498 0.254334 10.4099 0.254334 7.29557C0.254334 3.86406 2.62812 1.3553 7.48873 1.3553C9.89078 1.3553 11.5016 1.6725 12.9428 2.3069L12.4624 6.19979C10.9646 5.27703 8.95822 4.72914 7.48873 4.72914C5.84969 4.72914 4.69106 5.42121 4.69106 6.69001C4.69106 7.75695 5.65187 8.276 8.16696 9.42945C12.1515 11.2461 13.6493 12.5726 13.6493 15.4851C13.6493 18.8877 11.2755 21.4542 5.96273 21.4542Z" fill="#343A40"/>
<path d="M28.2761 6.83419H28.8413V21.0505H24.6872V19.6375C23.4155 20.7909 21.9743 21.31 20.3635 21.31C18.0745 21.31 16.8594 19.9835 16.4637 18.311C16.2094 17.3306 16.1811 15.7446 16.1811 13.6684V7.41092L19.8266 6.83419H20.42V14.5335C20.42 17.0999 20.8722 18.1092 22.7091 18.1092C23.2742 18.1092 23.9807 17.9361 24.6024 17.5901V7.41092L28.2761 6.83419Z" fill="#343A40"/>
<path d="M40.3846 6.80535C43.7757 6.80535 46.093 9.16993 46.093 13.2935C46.093 17.9938 43.3236 21.4542 38.7456 21.4542C37.9543 21.4542 37.2196 21.3965 36.5414 21.2235V27.827H32.3024V7.41092L35.9196 6.83419H36.5414V8.39135C37.4174 7.41092 38.7738 6.80535 40.3846 6.80535ZM38.2934 18.7147C40.6107 18.7147 41.6846 16.9269 41.6846 13.6972C41.6846 11.1308 40.3846 9.94851 38.576 9.94851C37.7848 9.94851 37.0783 10.1504 36.5414 10.5541V18.2245C37.0783 18.5417 37.6717 18.7147 38.2934 18.7147Z" fill="#343A40"/>
<path d="M56.7773 6.80535C60.1684 6.80535 62.4857 9.16993 62.4857 13.2935C62.4857 17.9938 59.7162 21.4542 55.1382 21.4542C54.347 21.4542 53.6122 21.3965 52.934 21.2235V27.827H48.6951V7.41092L52.3123 6.83419H52.934V8.39135C53.81 7.41092 55.1665 6.80535 56.7773 6.80535ZM54.6861 18.7147C57.0033 18.7147 58.0772 16.9269 58.0772 13.6972C58.0772 11.1308 56.7773 9.94851 54.9687 9.94851C54.1774 9.94851 53.4709 10.1504 52.934 10.5541V18.2245C53.4709 18.5417 54.0644 18.7147 54.6861 18.7147Z" fill="#343A40"/>
<path d="M65.0877 21.0505V0.951596L68.7332 0.374872H69.3266V21.0505H65.0877Z" fill="#343A40"/>
<path d="M84.9112 13.2647V14.6777H76.1508C76.2921 17.4748 77.5638 18.5129 79.6833 18.5129C81.0397 18.5129 82.707 18.1668 84.1765 17.3018L84.7417 20.3296C83.47 21.0793 81.3788 21.4542 79.3441 21.4542C74.2292 21.4542 71.9119 18.7147 71.9119 14.2739C71.9119 9.5448 74.7379 6.6035 78.8355 6.6035C82.6222 6.6035 84.9112 8.73738 84.9112 13.2647ZM76.2639 12.4573L80.7571 12.2554C80.7571 9.97734 79.9941 9.19876 78.8072 9.19876C77.5638 9.19876 76.5747 10.1792 76.2639 12.4573Z" fill="#343A40"/>
<path d="M89.727 5.10402C88.088 5.10402 87.1837 3.95056 87.1837 2.56643C87.1837 1.18229 88.088 0 89.727 0C91.3661 0 92.2704 1.18229 92.2704 2.56643C92.2704 3.95056 91.3661 5.10402 89.727 5.10402ZM85.8838 28L84.5838 24.8568C86.4772 24.2801 87.2967 23.8476 87.5511 22.9825C87.6358 22.723 87.6641 22.3769 87.6641 21.137V7.41092L91.3096 6.83419H91.903V22.1462C91.903 24.9434 90.5183 26.9042 85.8838 28Z" fill="#343A40"/>
<path d="M101.608 6.6035C104.434 6.6035 106.355 7.72811 106.355 10.4676C106.355 11.6498 106.299 13.4665 106.27 14.447L106.129 21.0505H102.032V19.8682C101.042 20.5602 99.7708 21.0793 98.4709 21.2812C95.7297 21.0793 94.2037 19.2626 94.2037 16.9846C94.2037 14.5623 95.9558 13.7261 99.4034 13.3223L102.032 13.0051V11.0731C102.032 10.0927 101.466 9.66014 100.279 9.66014C99.1208 9.66014 97.7361 10.1215 95.6167 11.6498L94.9102 8.44902C96.6058 7.15139 99.2339 6.6035 101.608 6.6035ZM100.336 18.5129C100.845 18.5129 101.466 18.3687 102.032 18.1668V15.312L100.703 15.4562C98.8948 15.6581 98.4144 16.0618 98.4144 16.898C98.4144 17.9073 99.3187 18.5129 100.336 18.5129Z" fill="#343A40"/>
<path d="M116.046 21.4542C110.902 21.4542 108.726 18.7147 108.726 14.3605C108.726 9.5448 111.581 6.6035 116.159 6.6035C117.769 6.6035 119.069 6.83419 120.143 7.29557L119.691 10.7271C118.306 10.0062 117.204 9.63131 116.385 9.63131C114.152 9.63131 113.135 11.3038 113.135 14.1586C113.135 17.6766 114.717 18.5129 116.385 18.5129C117.204 18.5129 118.617 18.2245 119.861 17.2441L120.426 20.3584C119.493 21.0216 117.741 21.4542 116.046 21.4542Z" fill="#343A40"/>
<path d="M131.554 21.0505L128.672 14.793H127.004V21.0505H122.766V0.951596L126.411 0.374872H127.004V11.9959L128.87 11.7075V11.7364L131.611 7.00721H136.132L132.345 13.207L136.33 21.0505H131.554Z" fill="#343A40"/>
<path d="M97.367 29.078C97.311 29.1807 97.2247 29.232 97.108 29.232C97.038 29.232 96.9587 29.2063 96.87 29.155C96.7813 29.1037 96.6717 29.0477 96.541 28.987C96.415 28.9217 96.2633 28.8633 96.086 28.812C95.9087 28.756 95.6987 28.728 95.456 28.728C95.246 28.728 95.057 28.756 94.889 28.812C94.721 28.8633 94.5763 28.9357 94.455 29.029C94.3383 29.1223 94.2473 29.232 94.182 29.358C94.1213 29.4793 94.091 29.6123 94.091 29.757C94.091 29.939 94.1423 30.0907 94.245 30.212C94.3523 30.3333 94.4923 30.4383 94.665 30.527C94.8377 30.6157 95.0337 30.695 95.253 30.765C95.4723 30.8303 95.6963 30.9027 95.925 30.982C96.1583 31.0567 96.3847 31.1407 96.604 31.234C96.8233 31.3273 97.0193 31.444 97.192 31.584C97.3647 31.724 97.5023 31.8967 97.605 32.102C97.7123 32.3027 97.766 32.5453 97.766 32.83C97.766 33.1567 97.7077 33.46 97.591 33.74C97.4743 34.0153 97.3017 34.2557 97.073 34.461C96.8443 34.6617 96.5643 34.8203 96.233 34.937C95.9017 35.0537 95.519 35.112 95.085 35.112C94.5903 35.112 94.1423 35.0327 93.741 34.874C93.3397 34.7107 92.999 34.503 92.719 34.251L93.013 33.775C93.0503 33.7143 93.0947 33.6677 93.146 33.635C93.1973 33.6023 93.2627 33.586 93.342 33.586C93.426 33.586 93.5147 33.6187 93.608 33.684C93.7013 33.7493 93.8133 33.8217 93.944 33.901C94.0793 33.9803 94.2427 34.0527 94.434 34.118C94.6253 34.1833 94.8633 34.216 95.148 34.216C95.3907 34.216 95.603 34.1857 95.785 34.125C95.967 34.0597 96.1187 33.9733 96.24 33.866C96.3613 33.7587 96.45 33.635 96.506 33.495C96.5667 33.355 96.597 33.2057 96.597 33.047C96.597 32.851 96.5433 32.69 96.436 32.564C96.3333 32.4333 96.1957 32.3237 96.023 32.235C95.8503 32.1417 95.652 32.0623 95.428 31.997C95.2087 31.927 94.9823 31.8547 94.749 31.78C94.5203 31.7053 94.294 31.6213 94.07 31.528C93.8507 31.43 93.6547 31.3087 93.482 31.164C93.3093 31.0193 93.1693 30.842 93.062 30.632C92.9593 30.4173 92.908 30.1583 92.908 29.855C92.908 29.5843 92.964 29.3253 93.076 29.078C93.188 28.826 93.3513 28.6067 93.566 28.42C93.7807 28.2287 94.0443 28.077 94.357 27.965C94.6697 27.853 95.0267 27.797 95.428 27.797C95.8947 27.797 96.3123 27.8717 96.681 28.021C97.0543 28.1657 97.3763 28.3663 97.647 28.623L97.367 29.078Z" fill="#343A40"/>
<path d="M101.471 35.112C100.911 35.112 100.479 34.9557 100.176 34.643C99.877 34.3303 99.7276 33.88 99.7276 33.292V28.952H98.8736C98.799 28.952 98.736 28.931 98.6846 28.889C98.6333 28.8423 98.6076 28.7723 98.6076 28.679V28.182L99.7696 28.035L100.057 25.844C100.071 25.774 100.101 25.718 100.148 25.676C100.199 25.6293 100.264 25.606 100.344 25.606H100.974V28.049H103.025V28.952H100.974V33.208C100.974 33.5067 101.046 33.7283 101.191 33.873C101.335 34.0177 101.522 34.09 101.751 34.09C101.881 34.09 101.993 34.0737 102.087 34.041C102.185 34.0037 102.269 33.964 102.339 33.922C102.409 33.88 102.467 33.8427 102.514 33.81C102.565 33.7727 102.609 33.754 102.647 33.754C102.712 33.754 102.77 33.7937 102.822 33.873L103.186 34.468C102.971 34.6687 102.712 34.8273 102.409 34.944C102.105 35.056 101.793 35.112 101.471 35.112Z" fill="#343A40"/>
<path d="M108.154 31.808C107.58 31.8267 107.09 31.8733 106.684 31.948C106.283 32.018 105.954 32.1113 105.697 32.228C105.445 32.3447 105.261 32.4823 105.144 32.641C105.032 32.7997 104.976 32.977 104.976 33.173C104.976 33.3597 105.007 33.5207 105.067 33.656C105.128 33.7913 105.21 33.9033 105.312 33.992C105.42 34.076 105.543 34.139 105.683 34.181C105.828 34.2183 105.982 34.237 106.145 34.237C106.365 34.237 106.565 34.216 106.747 34.174C106.929 34.1273 107.1 34.062 107.258 33.978C107.422 33.894 107.576 33.7937 107.72 33.677C107.87 33.5603 108.014 33.4273 108.154 33.278V31.808ZM104.129 28.91C104.521 28.532 104.944 28.2497 105.396 28.063C105.849 27.8763 106.351 27.783 106.901 27.783C107.298 27.783 107.65 27.8483 107.958 27.979C108.266 28.1097 108.525 28.2917 108.735 28.525C108.945 28.7583 109.104 29.0407 109.211 29.372C109.319 29.7033 109.372 30.0673 109.372 30.464V35H108.819C108.698 35 108.605 34.9813 108.539 34.944C108.474 34.902 108.423 34.8227 108.385 34.706L108.245 34.034C108.059 34.2067 107.877 34.3607 107.699 34.496C107.522 34.6267 107.335 34.7387 107.139 34.832C106.943 34.9207 106.733 34.9883 106.509 35.035C106.29 35.0863 106.045 35.112 105.774 35.112C105.499 35.112 105.24 35.0747 104.997 35C104.755 34.9207 104.542 34.804 104.36 34.65C104.183 34.496 104.041 34.3023 103.933 34.069C103.831 33.831 103.779 33.551 103.779 33.229C103.779 32.949 103.856 32.6807 104.01 32.424C104.164 32.1627 104.414 31.9317 104.759 31.731C105.105 31.5303 105.555 31.367 106.11 31.241C106.666 31.1103 107.347 31.0357 108.154 31.017V30.464C108.154 29.9133 108.035 29.498 107.797 29.218C107.559 28.9333 107.212 28.791 106.754 28.791C106.446 28.791 106.187 28.8307 105.977 28.91C105.772 28.9847 105.592 29.071 105.438 29.169C105.289 29.2623 105.158 29.3487 105.046 29.428C104.939 29.5027 104.832 29.54 104.724 29.54C104.64 29.54 104.568 29.519 104.507 29.477C104.447 29.4303 104.395 29.3743 104.353 29.309L104.129 28.91Z" fill="#343A40"/>
<path d="M113.741 31.535C113.993 31.535 114.215 31.5 114.406 31.43C114.598 31.36 114.759 31.262 114.889 31.136C115.02 31.01 115.118 30.8607 115.183 30.688C115.249 30.5107 115.281 30.317 115.281 30.107C115.281 29.673 115.148 29.3277 114.882 29.071C114.621 28.8143 114.241 28.686 113.741 28.686C113.237 28.686 112.852 28.8143 112.586 29.071C112.325 29.3277 112.194 29.673 112.194 30.107C112.194 30.317 112.227 30.5107 112.292 30.688C112.362 30.8607 112.463 31.01 112.593 31.136C112.724 31.262 112.885 31.36 113.076 31.43C113.268 31.5 113.489 31.535 113.741 31.535ZM115.988 35.385C115.988 35.2123 115.939 35.0723 115.841 34.965C115.743 34.8577 115.61 34.7737 115.442 34.713C115.279 34.6523 115.088 34.6103 114.868 34.587C114.649 34.559 114.416 34.538 114.168 34.524C113.926 34.51 113.678 34.496 113.426 34.482C113.174 34.468 112.932 34.4447 112.698 34.412C112.437 34.5333 112.222 34.6873 112.054 34.874C111.891 35.056 111.809 35.2707 111.809 35.518C111.809 35.6767 111.849 35.8237 111.928 35.959C112.012 36.099 112.138 36.218 112.306 36.316C112.474 36.4187 112.684 36.498 112.936 36.554C113.193 36.6147 113.494 36.645 113.839 36.645C114.175 36.645 114.476 36.6147 114.742 36.554C115.008 36.4933 115.232 36.407 115.414 36.295C115.601 36.183 115.743 36.05 115.841 35.896C115.939 35.742 115.988 35.5717 115.988 35.385ZM117.255 28.189V28.651C117.255 28.805 117.157 28.903 116.961 28.945L116.156 29.05C116.315 29.358 116.394 29.6987 116.394 30.072C116.394 30.4173 116.327 30.7323 116.191 31.017C116.061 31.297 115.879 31.5373 115.645 31.738C115.412 31.9387 115.132 32.0927 114.805 32.2C114.479 32.3073 114.124 32.361 113.741 32.361C113.41 32.361 113.097 32.3213 112.803 32.242C112.654 32.3353 112.54 32.4357 112.46 32.543C112.381 32.6457 112.341 32.7507 112.341 32.858C112.341 33.026 112.409 33.1543 112.544 33.243C112.684 33.327 112.866 33.3877 113.09 33.425C113.314 33.4623 113.569 33.4857 113.853 33.495C114.143 33.5043 114.437 33.5207 114.735 33.544C115.039 33.5627 115.333 33.5977 115.617 33.649C115.907 33.7003 116.163 33.7843 116.387 33.901C116.611 34.0177 116.791 34.1787 116.926 34.384C117.066 34.5893 117.136 34.8553 117.136 35.182C117.136 35.4853 117.059 35.7793 116.905 36.064C116.756 36.3487 116.539 36.6007 116.254 36.82C115.97 37.044 115.62 37.2213 115.204 37.352C114.794 37.4873 114.329 37.555 113.811 37.555C113.293 37.555 112.841 37.5037 112.453 37.401C112.066 37.2983 111.744 37.1607 111.487 36.988C111.231 36.8153 111.037 36.6147 110.906 36.386C110.78 36.162 110.717 35.9263 110.717 35.679C110.717 35.329 110.827 35.0327 111.046 34.79C111.266 34.5473 111.567 34.3537 111.949 34.209C111.739 34.1157 111.571 33.992 111.445 33.838C111.324 33.6793 111.263 33.467 111.263 33.201C111.263 33.0983 111.282 32.9933 111.319 32.886C111.357 32.774 111.413 32.6643 111.487 32.557C111.567 32.445 111.662 32.34 111.774 32.242C111.886 32.144 112.017 32.0577 112.166 31.983C111.816 31.787 111.543 31.528 111.347 31.206C111.151 30.8793 111.053 30.5013 111.053 30.072C111.053 29.7267 111.119 29.414 111.249 29.134C111.385 28.8493 111.571 28.609 111.809 28.413C112.047 28.2123 112.33 28.0583 112.656 27.951C112.988 27.8437 113.349 27.79 113.741 27.79C114.049 27.79 114.336 27.825 114.602 27.895C114.868 27.9603 115.111 28.0583 115.33 28.189H117.255Z" fill="#343A40"/>
<path d="M119.86 27.909V35H118.614V27.909H119.86ZM120.126 25.683C120.126 25.8043 120.1 25.9187 120.049 26.026C120.002 26.1287 119.937 26.222 119.853 26.306C119.773 26.3853 119.678 26.4483 119.566 26.495C119.458 26.5417 119.344 26.565 119.223 26.565C119.101 26.565 118.987 26.5417 118.88 26.495C118.777 26.4483 118.686 26.3853 118.607 26.306C118.527 26.222 118.464 26.1287 118.418 26.026C118.371 25.9187 118.348 25.8043 118.348 25.683C118.348 25.5617 118.371 25.4473 118.418 25.34C118.464 25.228 118.527 25.1323 118.607 25.053C118.686 24.969 118.777 24.9037 118.88 24.857C118.987 24.8103 119.101 24.787 119.223 24.787C119.344 24.787 119.458 24.8103 119.566 24.857C119.678 24.9037 119.773 24.969 119.853 25.053C119.937 25.1323 120.002 25.228 120.049 25.34C120.1 25.4473 120.126 25.5617 120.126 25.683Z" fill="#343A40"/>
<path d="M123.083 28.938C123.237 28.7653 123.4 28.609 123.573 28.469C123.746 28.329 123.928 28.21 124.119 28.112C124.315 28.0093 124.52 27.9323 124.735 27.881C124.954 27.825 125.19 27.797 125.442 27.797C125.829 27.797 126.17 27.8623 126.464 27.993C126.763 28.119 127.01 28.301 127.206 28.539C127.407 28.7723 127.558 29.0547 127.661 29.386C127.764 29.7173 127.815 30.0837 127.815 30.485V35H126.562V30.485C126.562 29.9483 126.438 29.533 126.191 29.239C125.948 28.9403 125.577 28.791 125.078 28.791C124.709 28.791 124.364 28.8797 124.042 29.057C123.725 29.2343 123.431 29.4747 123.16 29.778V35H121.907V27.909H122.656C122.833 27.909 122.943 27.9953 122.985 28.168L123.083 28.938Z" fill="#343A40"/>
<path d="M132.185 31.535C132.437 31.535 132.658 31.5 132.85 31.43C133.041 31.36 133.202 31.262 133.333 31.136C133.463 31.01 133.561 30.8607 133.627 30.688C133.692 30.5107 133.725 30.317 133.725 30.107C133.725 29.673 133.592 29.3277 133.326 29.071C133.064 28.8143 132.684 28.686 132.185 28.686C131.681 28.686 131.296 28.8143 131.03 29.071C130.768 29.3277 130.638 29.673 130.638 30.107C130.638 30.317 130.67 30.5107 130.736 30.688C130.806 30.8607 130.906 31.01 131.037 31.136C131.167 31.262 131.328 31.36 131.52 31.43C131.711 31.5 131.933 31.535 132.185 31.535ZM134.432 35.385C134.432 35.2123 134.383 35.0723 134.285 34.965C134.187 34.8577 134.054 34.7737 133.886 34.713C133.722 34.6523 133.531 34.6103 133.312 34.587C133.092 34.559 132.859 34.538 132.612 34.524C132.369 34.51 132.122 34.496 131.87 34.482C131.618 34.468 131.375 34.4447 131.142 34.412C130.88 34.5333 130.666 34.6873 130.498 34.874C130.334 35.056 130.253 35.2707 130.253 35.518C130.253 35.6767 130.292 35.8237 130.372 35.959C130.456 36.099 130.582 36.218 130.75 36.316C130.918 36.4187 131.128 36.498 131.38 36.554C131.636 36.6147 131.937 36.645 132.283 36.645C132.619 36.645 132.92 36.6147 133.186 36.554C133.452 36.4933 133.676 36.407 133.858 36.295C134.044 36.183 134.187 36.05 134.285 35.896C134.383 35.742 134.432 35.5717 134.432 35.385ZM135.699 28.189V28.651C135.699 28.805 135.601 28.903 135.405 28.945L134.6 29.05C134.758 29.358 134.838 29.6987 134.838 30.072C134.838 30.4173 134.77 30.7323 134.635 31.017C134.504 31.297 134.322 31.5373 134.089 31.738C133.855 31.9387 133.575 32.0927 133.249 32.2C132.922 32.3073 132.567 32.361 132.185 32.361C131.853 32.361 131.541 32.3213 131.247 32.242C131.097 32.3353 130.983 32.4357 130.904 32.543C130.824 32.6457 130.785 32.7507 130.785 32.858C130.785 33.026 130.852 33.1543 130.988 33.243C131.128 33.327 131.31 33.3877 131.534 33.425C131.758 33.4623 132.012 33.4857 132.297 33.495C132.586 33.5043 132.88 33.5207 133.179 33.544C133.482 33.5627 133.776 33.5977 134.061 33.649C134.35 33.7003 134.607 33.7843 134.831 33.901C135.055 34.0177 135.234 34.1787 135.37 34.384C135.51 34.5893 135.58 34.8553 135.58 35.182C135.58 35.4853 135.503 35.7793 135.349 36.064C135.199 36.3487 134.982 36.6007 134.698 36.82C134.413 37.044 134.063 37.2213 133.648 37.352C133.237 37.4873 132.773 37.555 132.255 37.555C131.737 37.555 131.284 37.5037 130.897 37.401C130.509 37.2983 130.187 37.1607 129.931 36.988C129.674 36.8153 129.48 36.6147 129.35 36.386C129.224 36.162 129.161 35.9263 129.161 35.679C129.161 35.329 129.27 35.0327 129.49 34.79C129.709 34.5473 130.01 34.3537 130.393 34.209C130.183 34.1157 130.015 33.992 129.889 33.838C129.767 33.6793 129.707 33.467 129.707 33.201C129.707 33.0983 129.725 32.9933 129.763 32.886C129.8 32.774 129.856 32.6643 129.931 32.557C130.01 32.445 130.106 32.34 130.218 32.242C130.33 32.144 130.46 32.0577 130.61 31.983C130.26 31.787 129.987 31.528 129.791 31.206C129.595 30.8793 129.497 30.5013 129.497 30.072C129.497 29.7267 129.562 29.414 129.693 29.134C129.828 28.8493 130.015 28.609 130.253 28.413C130.491 28.2123 130.773 28.0583 131.1 27.951C131.431 27.8437 131.793 27.79 132.185 27.79C132.493 27.79 132.78 27.825 133.046 27.895C133.312 27.9603 133.554 28.0583 133.774 28.189H135.699Z" fill="#343A40"/>
</svg>
