<svg width="184" height="37" viewBox="0 0 184 37" fill="none" xmlns="http://www.w3.org/2000/svg">
<path d="M5.96273 21.4542C3.64546 21.4542 1.35645 21.0216 0 20.4161L0.565187 16.379C2.28901 17.4748 4.5215 18.1092 6.1888 18.1092C8.05392 18.1092 9.12778 17.2441 9.12778 15.9464C9.12778 14.8218 8.36477 14.3893 5.51058 13.1205C2.09119 11.6498 0.254334 10.4099 0.254334 7.29557C0.254334 3.86406 2.62812 1.3553 7.48873 1.3553C9.89078 1.3553 11.5016 1.6725 12.9428 2.3069L12.4624 6.19979C10.9646 5.27703 8.95822 4.72914 7.48873 4.72914C5.84969 4.72914 4.69106 5.42121 4.69106 6.69001C4.69106 7.75695 5.65187 8.276 8.16696 9.42945C12.1515 11.2461 13.6493 12.5726 13.6493 15.4851C13.6493 18.8877 11.2755 21.4542 5.96273 21.4542Z" fill="#343A40"/>
<path d="M28.2761 6.83419H28.8413V21.0505H24.6872V19.6375C23.4155 20.7909 21.9743 21.31 20.3635 21.31C18.0745 21.31 16.8594 19.9835 16.4637 18.311C16.2094 17.3306 16.1811 15.7446 16.1811 13.6684V7.41092L19.8266 6.83419H20.42V14.5335C20.42 17.0999 20.8722 18.1092 22.7091 18.1092C23.2742 18.1092 23.9807 17.9361 24.6024 17.5901V7.41092L28.2761 6.83419Z" fill="#343A40"/>
<path d="M40.3846 6.80535C43.7757 6.80535 46.093 9.16993 46.093 13.2935C46.093 17.9938 43.3236 21.4542 38.7456 21.4542C37.9543 21.4542 37.2196 21.3965 36.5414 21.2235V27.827H32.3024V7.41092L35.9196 6.83419H36.5414V8.39135C37.4174 7.41092 38.7738 6.80535 40.3846 6.80535ZM38.2934 18.7147C40.6107 18.7147 41.6846 16.9269 41.6846 13.6972C41.6846 11.1308 40.3846 9.94851 38.576 9.94851C37.7848 9.94851 37.0783 10.1504 36.5414 10.5541V18.2245C37.0783 18.5417 37.6717 18.7147 38.2934 18.7147Z" fill="#343A40"/>
<path d="M56.7773 6.80535C60.1684 6.80535 62.4857 9.16993 62.4857 13.2935C62.4857 17.9938 59.7162 21.4542 55.1382 21.4542C54.347 21.4542 53.6122 21.3965 52.934 21.2235V27.827H48.6951V7.41092L52.3123 6.83419H52.934V8.39135C53.81 7.41092 55.1665 6.80535 56.7773 6.80535ZM54.6861 18.7147C57.0033 18.7147 58.0772 16.9269 58.0772 13.6972C58.0772 11.1308 56.7773 9.94851 54.9687 9.94851C54.1774 9.94851 53.4709 10.1504 52.934 10.5541V18.2245C53.4709 18.5417 54.0644 18.7147 54.6861 18.7147Z" fill="#343A40"/>
<path d="M65.0877 21.0505V0.951596L68.7332 0.374872H69.3266V21.0505H65.0877Z" fill="#343A40"/>
<path d="M84.9112 13.2647V14.6777H76.1508C76.2921 17.4748 77.5638 18.5129 79.6833 18.5129C81.0397 18.5129 82.707 18.1668 84.1765 17.3018L84.7417 20.3296C83.47 21.0793 81.3788 21.4542 79.3441 21.4542C74.2292 21.4542 71.9119 18.7147 71.9119 14.2739C71.9119 9.5448 74.7379 6.6035 78.8355 6.6035C82.6222 6.6035 84.9112 8.73738 84.9112 13.2647ZM76.2639 12.4573L80.7571 12.2554C80.7571 9.97734 79.9941 9.19876 78.8072 9.19876C77.5638 9.19876 76.5747 10.1792 76.2639 12.4573Z" fill="#343A40"/>
<path d="M89.727 5.10402C88.088 5.10402 87.1837 3.95056 87.1837 2.56643C87.1837 1.18229 88.088 0 89.727 0C91.3661 0 92.2704 1.18229 92.2704 2.56643C92.2704 3.95056 91.3661 5.10402 89.727 5.10402ZM85.8838 28L84.5838 24.8568C86.4772 24.2801 87.2967 23.8476 87.5511 22.9825C87.6358 22.723 87.6641 22.3769 87.6641 21.137V7.41092L91.3096 6.83419H91.903V22.1462C91.903 24.9434 90.5183 26.9042 85.8838 28Z" fill="#343A40"/>
<path d="M101.608 6.6035C104.434 6.6035 106.355 7.72811 106.355 10.4676C106.355 11.6498 106.299 13.4665 106.27 14.447L106.129 21.0505H102.032V19.8682C101.042 20.5602 99.7708 21.0793 98.4709 21.2812C95.7297 21.0793 94.2037 19.2626 94.2037 16.9846C94.2037 14.5623 95.9558 13.7261 99.4034 13.3223L102.032 13.0051V11.0731C102.032 10.0927 101.466 9.66014 100.279 9.66014C99.1208 9.66014 97.7361 10.1215 95.6167 11.6498L94.9102 8.44902C96.6058 7.15139 99.2339 6.6035 101.608 6.6035ZM100.336 18.5129C100.845 18.5129 101.466 18.3687 102.032 18.1668V15.312L100.703 15.4562C98.8948 15.6581 98.4144 16.0618 98.4144 16.898C98.4144 17.9073 99.3187 18.5129 100.336 18.5129Z" fill="#343A40"/>
<path d="M116.046 21.4542C110.902 21.4542 108.726 18.7147 108.726 14.3605C108.726 9.5448 111.581 6.6035 116.159 6.6035C117.769 6.6035 119.069 6.83419 120.143 7.29557L119.691 10.7271C118.306 10.0062 117.204 9.63131 116.385 9.63131C114.152 9.63131 113.135 11.3038 113.135 14.1586C113.135 17.6766 114.717 18.5129 116.385 18.5129C117.204 18.5129 118.617 18.2245 119.861 17.2441L120.426 20.3584C119.493 21.0216 117.741 21.4542 116.046 21.4542Z" fill="#343A40"/>
<path d="M131.554 21.0505L128.672 14.793H127.004V21.0505H122.766V0.951596L126.411 0.374872H127.004V11.9959L128.87 11.7075V11.7364L131.611 7.00721H136.132L132.345 13.207L136.33 21.0505H131.554Z" fill="#343A40"/>
<path d="M167.893 12.1701C174.851 29.6803 147.499 22.9293 139.015 14L141.155 10.6456C143.052 11.1901 147.877 10.6021 150.712 7.37879C159.99 -1.85545 166.067 7.81436 166.067 7.81436C166.067 7.81436 155.759 5.96316 147.598 13.4769C169.826 2.80523 178.416 14.4569 184 21.6439C182.926 22.7329 180.564 22.624 179.812 21.6439C178.631 16.417 171.114 12.1701 167.893 12.1701Z" fill="#479F76"/>
<path d="M117.424 35.076C117.78 35.076 118.098 35.016 118.378 34.896C118.658 34.776 118.894 34.608 119.086 34.392C119.282 34.176 119.43 33.918 119.53 33.618C119.634 33.318 119.686 32.988 119.686 32.628V27.402H120.844V32.628C120.844 33.124 120.764 33.584 120.604 34.008C120.448 34.432 120.222 34.8 119.926 35.112C119.634 35.42 119.276 35.662 118.852 35.838C118.428 36.014 117.952 36.102 117.424 36.102C116.896 36.102 116.42 36.014 115.996 35.838C115.572 35.662 115.212 35.42 114.916 35.112C114.62 34.8 114.392 34.432 114.232 34.008C114.076 33.584 113.998 33.124 113.998 32.628V27.402H115.156V32.622C115.156 32.982 115.206 33.312 115.306 33.612C115.41 33.912 115.558 34.17 115.75 34.386C115.946 34.602 116.184 34.772 116.464 34.896C116.748 35.016 117.068 35.076 117.424 35.076Z" fill="#343A40"/>
<path d="M127.297 32.808L125.947 29.31C125.907 29.206 125.865 29.086 125.821 28.95C125.777 28.81 125.735 28.662 125.695 28.506C125.611 28.83 125.525 29.1 125.437 29.316L124.087 32.808H127.297ZM129.721 36H128.821C128.717 36 128.633 35.974 128.569 35.922C128.505 35.87 128.457 35.804 128.425 35.724L127.621 33.648H123.763L122.959 35.724C122.935 35.796 122.889 35.86 122.821 35.916C122.753 35.972 122.669 36 122.569 36H121.669L125.107 27.402H126.283L129.721 36Z" fill="#343A40"/>
<path d="M135.822 28.38H133.038V36H131.88V28.38H129.09V27.402H135.822V28.38Z" fill="#343A40"/>
</svg>
