<svg width="214" height="32" viewBox="0 0 214 32" fill="none" xmlns="http://www.w3.org/2000/svg">
<path d="M6.90571 24.5191C4.22197 24.5191 1.57097 24.0247 0 23.3326L0.65457 18.7188C2.65101 19.9712 5.23656 20.6962 7.16754 20.6962C9.32762 20.6962 10.5713 19.7075 10.5713 18.2245C10.5713 16.9392 9.68763 16.4449 6.38205 14.9949C2.42191 13.3141 0.294556 11.897 0.294556 8.3378C0.294556 4.41607 3.04375 1.54892 8.67305 1.54892C11.455 1.54892 13.3205 1.91143 14.9896 2.63646L14.4333 7.08548C12.6987 6.03089 10.3749 5.40474 8.67305 5.40474C6.7748 5.40474 5.43293 6.19567 5.43293 7.64572C5.43293 8.86509 6.5457 9.45829 9.45853 10.7765C14.0732 12.8527 15.8079 14.3687 15.8079 17.6972C15.8079 21.586 13.0587 24.5191 6.90571 24.5191Z" fill="white"/>
<path d="M32.7479 7.8105H33.4025V24.0577H28.5914V22.4428C27.1186 23.7611 25.4495 24.3543 23.5839 24.3543C20.9329 24.3543 19.5256 22.8383 19.0674 20.9269C18.7729 19.8064 18.7401 17.9938 18.7401 15.621V8.46962L22.9621 7.8105H23.6494V16.6097C23.6494 19.5427 24.1731 20.6962 26.3004 20.6962C26.955 20.6962 27.7732 20.4985 28.4932 20.103V8.46962L32.7479 7.8105Z" fill="white"/>
<path d="M46.7713 7.77755C50.6987 7.77755 53.3825 10.4799 53.3825 15.1926C53.3825 20.5644 50.1751 24.5191 44.873 24.5191C43.9566 24.5191 43.1057 24.4531 42.3202 24.2554V31.8023H37.411V8.46962L41.6002 7.8105H42.3202V9.59011C43.3348 8.46962 44.9058 7.77755 46.7713 7.77755ZM44.3494 21.3883C47.0331 21.3883 48.2768 19.345 48.2768 15.654C48.2768 12.7209 46.7713 11.3697 44.6767 11.3697C43.7603 11.3697 42.9421 11.6004 42.3202 12.0618V20.828C42.9421 21.1905 43.6294 21.3883 44.3494 21.3883Z" fill="white"/>
<path d="M65.7564 7.77755C69.6838 7.77755 72.3675 10.4799 72.3675 15.1926C72.3675 20.5644 69.1601 24.5191 63.8581 24.5191C62.9417 24.5191 62.0908 24.4531 61.3053 24.2554V31.8023H56.396V8.46962L60.5853 7.8105H61.3053V9.59011C62.3199 8.46962 63.8909 7.77755 65.7564 7.77755ZM63.3345 21.3883C66.0182 21.3883 67.2619 19.345 67.2619 15.654C67.2619 12.7209 65.7564 11.3697 63.6618 11.3697C62.7454 11.3697 61.9271 11.6004 61.3053 12.0618V20.828C61.9271 21.1905 62.6144 21.3883 63.3345 21.3883Z" fill="white"/>
<path d="M75.3811 24.0577V1.08754L79.6031 0.428425H80.2904V24.0577H75.3811Z" fill="white"/>
<path d="M98.3396 15.1596V16.7745H88.1938C88.3574 19.9712 89.8302 21.1576 92.2849 21.1576C93.8558 21.1576 95.7868 20.7621 97.4887 19.7734L98.1433 23.2338C96.6705 24.0906 94.2486 24.5191 91.8921 24.5191C85.9683 24.5191 83.2845 21.3883 83.2845 16.3131C83.2845 10.9083 86.5574 7.54686 91.303 7.54686C95.6886 7.54686 98.3396 9.98558 98.3396 15.1596ZM88.3247 14.2369L93.5285 14.0062C93.5285 11.4027 92.6449 10.5129 91.2703 10.5129C89.8302 10.5129 88.6847 11.6334 88.3247 14.2369Z" fill="white"/>
<path d="M103.917 5.83316C102.019 5.83316 100.971 4.51493 100.971 2.93306C100.971 1.35118 102.019 0 103.917 0C105.815 0 106.863 1.35118 106.863 2.93306C106.863 4.51493 105.815 5.83316 103.917 5.83316ZM99.4659 32L97.9604 28.4078C100.153 27.7487 101.102 27.2544 101.397 26.2657C101.495 25.9691 101.528 25.5736 101.528 24.1565V8.46962L105.75 7.8105H106.437V25.31C106.437 28.5067 104.833 30.7477 99.4659 32Z" fill="white"/>
<path d="M117.677 7.54686C120.949 7.54686 123.175 8.83213 123.175 11.9629C123.175 13.3141 123.109 15.3903 123.077 16.5108L122.913 24.0577H118.167V22.7065C117.022 23.4974 115.549 24.0906 114.044 24.3213C110.869 24.0906 109.102 22.0144 109.102 19.4109C109.102 16.6426 111.131 15.6869 115.124 15.2255L118.167 14.863V12.655C118.167 11.5345 117.513 11.0402 116.138 11.0402C114.796 11.0402 113.193 11.5675 110.738 13.3141L109.92 9.65602C111.884 8.17302 114.927 7.54686 117.677 7.54686ZM116.204 21.1576C116.793 21.1576 117.513 20.9928 118.167 20.7621V17.4995L116.629 17.6643C114.535 17.895 113.978 18.3563 113.978 19.312C113.978 20.4655 115.026 21.1576 116.204 21.1576Z" fill="white"/>
<path d="M134.398 24.5191C128.441 24.5191 125.921 21.3883 125.921 16.4119C125.921 10.9083 129.227 7.54686 134.529 7.54686C136.394 7.54686 137.9 7.8105 139.143 8.3378L138.62 12.2595C137.016 11.4356 135.74 11.0072 134.79 11.0072C132.205 11.0072 131.027 12.9186 131.027 16.1813C131.027 20.2019 132.859 21.1576 134.79 21.1576C135.74 21.1576 137.376 20.828 138.816 19.7075L139.471 23.2667C138.391 24.0247 136.361 24.5191 134.398 24.5191Z" fill="white"/>
<path d="M152.359 24.0577L149.021 16.9063H147.09V24.0577H142.18V1.08754L146.402 0.428425H147.09V13.7096L149.25 13.38V13.413L152.424 8.00824H157.661L153.275 15.0937L157.89 24.0577H152.359Z" fill="white"/>
<path d="M194.444 13.9087C202.503 33.9204 170.825 26.205 161 16L163.478 12.1664C165.675 12.7887 171.263 12.1166 174.546 8.4329C185.291 -2.12052 192.33 8.9307 192.33 8.9307C192.33 8.9307 180.391 6.81504 170.94 15.4021C196.683 3.20597 206.632 16.5222 213.099 24.7359C211.855 25.9804 209.119 25.856 208.249 24.7359C206.881 18.7623 198.175 13.9087 194.444 13.9087Z" fill="#479F76"/>
</svg>
