<?xml version="1.0" standalone="no"?>
<!DOCTYPE svg PUBLIC "-//W3C//DTD SVG 20010904//EN"
 "http://www.w3.org/TR/2001/REC-SVG-20010904/DTD/svg10.dtd">
<svg version="1.0" xmlns="http://www.w3.org/2000/svg"
 width="700.000000pt" height="700.000000pt" viewBox="0 0 700.000000 700.000000"
 preserveAspectRatio="xMidYMid meet">
<metadata>
Created by potrace 1.14, written by Peter Selinger 2001-2017
</metadata>
<g transform="translate(0.000000,700.000000) scale(0.100000,-0.100000)"
fill="#000000" stroke="none">
<path d="M2895 4899 c-96 -14 -121 -20 -220 -51 -260 -82 -536 -264 -811 -535
-106 -104 -181 -166 -277 -227 -129 -83 -326 -165 -487 -205 -104 -25 -116
-27 -260 -47 -58 -8 -269 -4 -320 6 -42 8 -57 7 -66 -2 -6 -7 -77 -116 -158
-241 -160 -249 -154 -230 -95 -287 64 -62 170 -154 239 -206 79 -61 297 -214
304 -214 3 0 32 -18 65 -40 33 -22 63 -40 66 -40 3 0 22 -11 43 -23 137 -87
477 -252 717 -349 221 -89 586 -213 691 -234 6 -1 36 -9 65 -17 56 -16 308
-71 369 -81 19 -3 49 -8 65 -11 53 -9 89 -15 130 -20 22 -3 54 -7 70 -10 125
-19 473 -26 618 -12 167 16 255 36 406 89 302 109 493 335 528 625 14 115 5
325 -17 402 -5 17 -9 34 -9 36 1 36 -65 258 -110 374 l-22 53 65 -6 c361 -33
916 -331 1271 -680 161 -160 254 -283 335 -445 47 -93 90 -207 90 -235 0 -21
73 -75 132 -98 107 -40 283 -34 388 15 48 22 100 57 100 67 0 8 -177 238 -200
260 -3 3 -35 41 -70 85 -69 85 -71 88 -200 235 -111 125 -352 366 -467 464
-311 267 -652 469 -1003 596 -71 26 -273 86 -317 95 -10 1 -52 10 -93 18 -347
71 -726 81 -1135 32 -66 -8 -145 -19 -175 -25 -30 -5 -71 -12 -90 -15 -30 -5
-236 -49 -280 -60 -309 -76 -794 -241 -1054 -359 -155 -71 -280 -125 -282
-123 -3 3 129 113 204 170 375 282 827 486 1292 586 150 32 184 37 335 56 28
4 61 8 74 10 102 17 484 23 618 11 137 -13 178 -18 187 -24 5 -3 6 1 1 9 -59
99 -244 289 -374 384 -147 107 -355 205 -491 230 -128 24 -281 30 -385 14z"/>
</g>
</svg>
